<svg width="20" height="20" viewBox="0 0 20 20" fill="none" xmlns="http://www.w3.org/2000/svg">
<path d="M10 0C4.486 0 0 4.486 0 10C0 15.514 4.486 20 10 20C15.514 20 20 15.514 20 10C20 4.486 15.514 0 10 0ZM13.493 6C13.6924 5.99491 13.8908 6.02979 14.0765 6.10259C14.2621 6.17538 14.4314 6.28463 14.5742 6.42387C14.717 6.56311 14.8304 6.72954 14.9079 6.91333C14.9853 7.09712 15.0252 7.29457 15.0251 7.49401C15.0251 7.69346 14.9851 7.89088 14.9075 8.07462C14.8299 8.25836 14.7163 8.42471 14.5735 8.56386C14.4306 8.703 14.2613 8.81213 14.0755 8.8848C13.8898 8.95748 13.6914 8.99223 13.492 8.987C13.1026 8.97679 12.7326 8.8149 12.4608 8.53582C12.189 8.25674 12.037 7.88255 12.0371 7.49301C12.0373 7.10347 12.1895 6.72939 12.4615 6.45049C12.7335 6.17159 13.1036 6.00995 13.493 6ZM6.5 6C6.69705 6.00007 6.89215 6.03894 7.07418 6.11441C7.2562 6.18988 7.42158 6.30046 7.56087 6.43984C7.70016 6.57922 7.81063 6.74467 7.88597 6.92675C7.96132 7.10882 8.00007 7.30395 8 7.501C7.99993 7.69805 7.96106 7.89315 7.88559 8.07518C7.81012 8.2572 7.69954 8.42258 7.56016 8.56187C7.42078 8.70116 7.25533 8.81163 7.07325 8.88697C6.89118 8.96232 6.69605 9.00107 6.499 9.001C6.10104 9.00087 5.71944 8.84265 5.43813 8.56116C5.15683 8.27967 4.99887 7.89796 4.999 7.5C4.99913 7.10204 5.15735 6.72044 5.43884 6.43913C5.72033 6.15783 6.10204 5.99987 6.5 6ZM10 16C5 16 4 11 4 11H16C16 11 15 16 10 16Z" fill="white" fill-opacity="0.8"/>
</svg>
