<svg width="20" height="20" viewBox="0 0 20 20" fill="none" xmlns="http://www.w3.org/2000/svg">
<path d="M10 0C4.486 0 0 4.486 0 10C0 15.514 4.486 20 10 20C15.514 20 20 15.514 20 10C20 4.486 15.514 0 10 0ZM6.507 13C6.30762 13.0051 6.10923 12.9702 5.92355 12.8974C5.73786 12.8246 5.56863 12.7154 5.42583 12.5761C5.28303 12.4369 5.16956 12.2705 5.09211 12.0867C5.01466 11.9029 4.97479 11.7054 4.97485 11.506C4.97492 11.3065 5.01492 11.1091 5.0925 10.9254C5.17008 10.7416 5.28366 10.5753 5.42655 10.4361C5.56944 10.297 5.73874 10.1879 5.92448 10.1152C6.11021 10.0425 6.30862 10.0078 6.508 10.013C6.89741 10.0232 7.26743 10.1851 7.5392 10.4642C7.81097 10.7433 7.96298 11.1174 7.96285 11.507C7.96272 11.8965 7.81045 12.2706 7.5385 12.5495C7.26654 12.8284 6.89641 12.9901 6.507 13ZM10.808 6.081C10.2747 5.97379 9.72533 5.97379 9.192 6.081C8.93462 6.13381 8.68307 6.21186 8.441 6.314C8.207 6.414 7.978 6.538 7.763 6.682C7.33835 6.97177 6.97198 7.33881 6.683 7.764L5.024 6.646C5.67534 5.68152 6.59187 4.92614 7.663 4.471C8.02658 4.31752 8.4044 4.20029 8.791 4.121C9.58796 3.96006 10.409 3.96006 11.206 4.121C11.9749 4.27622 12.7051 4.5832 13.354 5.024C13.992 5.45733 14.5421 6.00772 14.975 6.646L13.317 7.763C13.1736 7.55118 13.0102 7.35361 12.829 7.173C12.2766 6.61923 11.5739 6.23957 10.808 6.081ZM13.5 13C13.102 12.9999 12.7204 12.8417 12.4391 12.5602C12.1578 12.2787 11.9999 11.897 12 11.499C12.0001 11.101 12.1583 10.7194 12.4398 10.4381C12.7213 10.1568 13.103 9.99887 13.501 9.999C13.899 9.99913 14.2806 10.1573 14.5619 10.4388C14.8432 10.7203 15.0011 11.102 15.001 11.5C15.0009 11.898 14.8427 12.2796 14.5612 12.5609C14.2797 12.8422 13.898 13.0001 13.5 13Z" fill="white" fill-opacity="0.8"/>
</svg>
