<svg width="18" height="20" viewBox="0 0 18 20" fill="none" xmlns="http://www.w3.org/2000/svg">
<path d="M0 9V17H0.0510001C0.296 18.692 1.741 20 3.5 20C4.674 20 5.574 19.583 6.172 18.826C6.54388 19.1994 6.98605 19.4954 7.47298 19.697C7.9599 19.8985 8.48193 20.0016 9.00892 20.0003C9.53591 19.999 10.0574 19.8934 10.5433 19.6894C11.0293 19.4854 11.47 19.1872 11.84 18.812C12.441 19.574 13.344 20 14.5 20C16.43 20 18 18.43 18 16.5V9C18 4.038 13.963 0 9 0C4.037 0 0 4.038 0 9ZM6 10C4.897 10 4 9.103 4 8C4 6.897 4.897 6 6 6C7.103 6 8 6.897 8 8C8 9.103 7.103 10 6 10ZM12 6C13.103 6 14 6.897 14 8C14 9.103 13.103 10 12 10C10.897 10 10 9.103 10 8C10 6.897 10.897 6 12 6Z" fill="white" fill-opacity="0.8"/>
</svg>
