<?xml version="1.0" standalone="no"?>
<!DOCTYPE svg PUBLIC "-//W3C//DTD SVG 20010904//EN"
 "http://www.w3.org/TR/2001/REC-SVG-20010904/DTD/svg10.dtd">
<svg version="1.0" xmlns="http://www.w3.org/2000/svg"
 width="256.000000pt" height="256.000000pt" viewBox="0 0 256.000000 256.000000"
 preserveAspectRatio="xMidYMid meet">

<g transform="translate(0.000000,256.000000) scale(0.100000,-0.100000)"
fill="#000000" stroke="none">
<path d="M1090 2545 c-278 -44 -511 -163 -711 -364 -204 -203 -321 -435 -364
-721 -100 -657 344 -1290 1005 -1431 137 -29 362 -32 492 -6 528 106 919 497
1025 1025 26 130 23 355 -6 492 -55 258 -177 477 -368 661 -286 275 -689 404
-1073 344z m1005 -1265 l0 -615 -815 0 -815 0 -3 605 c-1 333 0 611 3 618 3
10 172 12 817 10 l813 -3 0 -615z"/>
<path d="M520 1775 l0 -65 235 0 235 0 0 65 0 65 -235 0 -235 0 0 -65z"/>
<path d="M1050 1775 l0 -65 230 0 230 0 0 65 0 65 -230 0 -230 0 0 -65z"/>
<path d="M1570 1775 l0 -65 235 0 235 0 0 65 0 65 -235 0 -235 0 0 -65z"/>
<path d="M520 1185 l0 -465 235 0 235 0 0 465 0 465 -235 0 -235 0 0 -465z
m390 390 c10 -12 10 -18 0 -30 -11 -13 -38 -15 -164 -13 -138 3 -151 5 -154
22 -2 10 2 22 10 27 7 5 77 9 154 9 114 0 144 -3 154 -15z m-6 -101 c20 -20
23 -213 4 -232 -13 -13 -271 -18 -302 -6 -13 5 -16 25 -16 120 0 97 2 114 18
123 9 6 76 11 149 11 107 0 135 -3 147 -16z"/>
<path d="M650 1360 l0 -70 105 0 105 0 0 70 0 70 -105 0 -105 0 0 -70z"/>
<path d="M1050 1185 l0 -465 230 0 230 0 0 465 0 465 -230 0 -230 0 0 -465z
m385 365 l0 -25 -153 -3 c-129 -2 -153 0 -158 13 -4 8 -4 22 0 30 5 13 29 15
158 13 l153 -3 0 -25z m-11 -76 c13 -5 16 -26 16 -124 0 -98 -3 -119 -16 -124
-20 -8 -268 -8 -288 0 -13 5 -16 26 -16 124 0 85 3 120 13 123 18 8 272 8 291
1z m14 -358 c2 -10 -2 -22 -10 -27 -15 -10 -268 -12 -292 -3 -16 6 -22 35 -9
48 4 3 75 5 157 4 138 -3 151 -5 154 -22z m-3 -201 l0 -120 -155 0 -155 0 -3
109 c-1 61 0 116 2 123 4 11 38 13 158 11 l153 -3 0 -120z"/>
<path d="M1177 1414 c-4 -4 -7 -36 -7 -71 l0 -63 110 0 111 0 -3 68 -3 67
-101 3 c-55 1 -103 0 -107 -4z"/>
<path d="M1170 915 l0 -65 110 0 110 0 0 65 0 65 -110 0 -110 0 0 -65z"/>
<path d="M1570 1185 l0 -465 235 0 235 0 0 465 0 465 -235 0 -235 0 0 -465z
m388 396 c8 -5 12 -17 10 -27 -3 -17 -16 -19 -154 -22 -126 -2 -153 0 -164 13
-10 12 -10 18 0 30 10 12 40 15 154 15 77 0 147 -4 154 -9z m-7 -101 c17 -10
19 -22 19 -124 0 -95 -3 -115 -16 -120 -31 -12 -289 -7 -302 6 -8 8 -12 48
-12 114 0 137 -4 134 161 134 72 0 139 -5 150 -10z"/>
<path d="M1700 1360 l0 -70 105 0 105 0 0 70 0 70 -105 0 -105 0 0 -70z"/>
</g>
</svg>
